<svg aria-roledescription="flowchart-v2" role="graphics-document document" viewBox="-8 -8 565 458.5" style="max-width: 565px;" xmlns="http://www.w3.org/2000/svg" width="565" id="svg" height="458.5"><style>#svg{font-family:"trebuchet ms",verdana,arial,sans-serif;font-size:16px;fill:#333;}#svg .error-icon{fill:#552222;}#svg .error-text{fill:#552222;stroke:#552222;}#svg .edge-thickness-normal{stroke-width:2px;}#svg .edge-thickness-thick{stroke-width:3.5px;}#svg .edge-pattern-solid{stroke-dasharray:0;}#svg .edge-pattern-dashed{stroke-dasharray:3;}#svg .edge-pattern-dotted{stroke-dasharray:2;}#svg .marker{fill:#333333;stroke:#333333;}#svg .marker.cross{stroke:#333333;}#svg svg{font-family:"trebuchet ms",verdana,arial,sans-serif;font-size:16px;}#svg .label{font-family:"trebuchet ms",verdana,arial,sans-serif;color:#333;}#svg .cluster-label text{fill:#333;}#svg .cluster-label span,#svg p{color:#333;}#svg .label text,#svg span,#svg p{fill:#333;color:#333;}#svg .node rect,#svg .node circle,#svg .node ellipse,#svg .node polygon,#svg .node path{fill:#ECECFF;stroke:#9370DB;stroke-width:1px;}#svg .flowchart-label text{text-anchor:middle;}#svg .node .katex path{fill:#000;stroke:#000;stroke-width:1px;}#svg .node .label{text-align:center;}#svg .node.clickable{cursor:pointer;}#svg .arrowheadPath{fill:#333333;}#svg .edgePath .path{stroke:#333333;stroke-width:2.0px;}#svg .flowchart-link{stroke:#333333;fill:none;}#svg .edgeLabel{background-color:#e8e8e8;text-align:center;}#svg .edgeLabel rect{opacity:0.5;background-color:#e8e8e8;fill:#e8e8e8;}#svg .labelBkg{background-color:rgba(232, 232, 232, 0.5);}#svg .cluster rect{fill:#ffffde;stroke:#aaaa33;stroke-width:1px;}#svg .cluster text{fill:#333;}#svg .cluster span,#svg p{color:#333;}#svg div.mermaidTooltip{position:absolute;text-align:center;max-width:200px;padding:2px;font-family:"trebuchet ms",verdana,arial,sans-serif;font-size:12px;background:hsl(80, 100%, 96.2745098039%);border:1px solid #aaaa33;border-radius:2px;pointer-events:none;z-index:100;}#svg .flowchartTitleText{text-anchor:middle;font-size:18px;fill:#333;}#svg .today{display:none;}#svg .label foreignObject{overflow:visible;}#svg :root{--mermaid-font-family:"trebuchet ms",verdana,arial,sans-serif;}</style><g><marker orient="auto" markerHeight="12" markerWidth="12" markerUnits="userSpaceOnUse" refY="5" refX="6" viewBox="0 0 10 10" class="marker flowchart" id="svg_flowchart-pointEnd"><path style="stroke-width: 1; stroke-dasharray: 1, 0;" class="arrowMarkerPath" d="M 0 0 L 10 5 L 0 10 z"></path></marker><marker orient="auto" markerHeight="12" markerWidth="12" markerUnits="userSpaceOnUse" refY="5" refX="4.5" viewBox="0 0 10 10" class="marker flowchart" id="svg_flowchart-pointStart"><path style="stroke-width: 1; stroke-dasharray: 1, 0;" class="arrowMarkerPath" d="M 0 5 L 10 10 L 10 0 z"></path></marker><marker orient="auto" markerHeight="11" markerWidth="11" markerUnits="userSpaceOnUse" refY="5" refX="11" viewBox="0 0 10 10" class="marker flowchart" id="svg_flowchart-circleEnd"><circle style="stroke-width: 1; stroke-dasharray: 1, 0;" class="arrowMarkerPath" r="5" cy="5" cx="5"></circle></marker><marker orient="auto" markerHeight="11" markerWidth="11" markerUnits="userSpaceOnUse" refY="5" refX="-1" viewBox="0 0 10 10" class="marker flowchart" id="svg_flowchart-circleStart"><circle style="stroke-width: 1; stroke-dasharray: 1, 0;" class="arrowMarkerPath" r="5" cy="5" cx="5"></circle></marker><marker orient="auto" markerHeight="11" markerWidth="11" markerUnits="userSpaceOnUse" refY="5.2" refX="12" viewBox="0 0 11 11" class="marker cross flowchart" id="svg_flowchart-crossEnd"><path style="stroke-width: 2; stroke-dasharray: 1, 0;" class="arrowMarkerPath" d="M 1,1 l 9,9 M 10,1 l -9,9"></path></marker><marker orient="auto" markerHeight="11" markerWidth="11" markerUnits="userSpaceOnUse" refY="5.2" refX="-1" viewBox="0 0 11 11" class="marker cross flowchart" id="svg_flowchart-crossStart"><path style="stroke-width: 2; stroke-dasharray: 1, 0;" class="arrowMarkerPath" d="M 1,1 l 9,9 M 10,1 l -9,9"></path></marker><g class="root"><g class="clusters"><g id="R" class="cluster default flowchart-label"><rect height="371.5" width="242" y="0" x="307" ry="0" rx="0" style=""></rect><g transform="translate(396, 0)" class="cluster-label"><foreignObject height="21" width="64"><div style="display: inline-block; white-space: nowrap;" xmlns="http://www.w3.org/1999/xhtml"><span class="nodeLabel">请求阶段</span></div></foreignObject></g></g><g id="S" class="cluster default flowchart-label"><rect height="272" width="156" y="99.5" x="0" ry="0" rx="0" style=""></rect><g transform="translate(46, 99.5)" class="cluster-label"><foreignObject height="21" width="64"><div style="display: inline-block; white-space: nowrap;" xmlns="http://www.w3.org/1999/xhtml"><span class="nodeLabel">调度阶段</span></div></foreignObject></g></g><g id="lazy" class="cluster default flowchart-label"><rect height="106" width="106" y="119.5" x="25" ry="0" rx="0" style=""></rect><g transform="translate(46, 119.5)" class="cluster-label"><foreignObject height="21" width="64"><div style="display: inline-block; white-space: nowrap;" xmlns="http://www.w3.org/1999/xhtml"><span class="nodeLabel">懒汉模式</span></div></foreignObject></g></g><g id="eager" class="cluster default flowchart-label"><rect height="106" width="106" y="245.5" x="25" ry="0" rx="0" style=""></rect><g transform="translate(46, 245.5)" class="cluster-label"><foreignObject height="21" width="64"><div style="display: inline-block; white-space: nowrap;" xmlns="http://www.w3.org/1999/xhtml"><span class="nodeLabel">饿汉模式</span></div></foreignObject></g></g></g><g class="edgePaths"><path marker-end="url(#svg_flowchart-pointEnd)" style="fill:none;" class="edge-thickness-normal edge-pattern-solid flowchart-link LS-Req1 LE-LModel" id="L-Req1-LModel-0" d="M106,46.5L110.167,46.5C114.333,46.5,122.667,46.5,131,46.5C139.333,46.5,147.667,46.5,164.417,46.5C181.167,46.5,206.333,46.5,231.5,46.5C256.667,46.5,281.833,46.5,297.713,47.075C313.593,47.65,320.186,48.8,323.482,49.375L326.779,49.95"></path><path marker-end="url(#svg_flowchart-pointEnd)" style="fill:none;" class="edge-thickness-normal edge-pattern-solid flowchart-link LS-LModel LE-Gen1" id="L-LModel-Gen1-0" d="M411,57.75L415.167,57.75C419.333,57.75,427.667,57.75,435.117,57.75C442.567,57.75,449.133,57.75,452.417,57.75L455.7,57.75"></path><path marker-end="url(#svg_flowchart-pointEnd)" style="fill:none;" class="edge-thickness-normal edge-pattern-solid flowchart-link LS-Req2 LE-Gen2" id="L-Req2-Gen2-0" d="M106,424.5L110.167,424.5C114.333,424.5,122.667,424.5,131,424.5C139.333,424.5,147.667,424.5,164.417,402.625C181.167,380.75,206.333,337,231.5,315.125C256.667,293.25,281.833,293.25,299.094,295.081C316.355,296.912,325.71,300.574,330.387,302.405L335.065,304.237"></path><path marker-end="url(#svg_flowchart-pointEnd)" style="fill:none;stroke-width:2px;stroke-dasharray:3;" class="edge-thickness-normal edge-pattern-dotted flowchart-link LS-LA LE-LModel" id="L-LA-LModel-0" d="M101.5,172.5L106.417,172.5C111.333,172.5,121.167,172.5,130.25,172.5C139.333,172.5,147.667,172.5,164.417,172.5C181.167,172.5,206.333,172.5,231.5,172.5C256.667,172.5,281.833,172.5,303.048,157.145C324.262,141.79,341.524,111.08,350.155,95.725L358.785,80.37"></path><path marker-end="url(#svg_flowchart-pointEnd)" style="fill:none;stroke-width:2px;stroke-dasharray:3;" class="edge-thickness-normal edge-pattern-dotted flowchart-link LS-EA LE-Gen2" id="L-EA-Gen2-0" d="M101.5,298.5L106.417,298.5C111.333,298.5,121.167,298.5,130.25,298.5C139.333,298.5,147.667,298.5,164.417,302.917C181.167,307.333,206.333,316.167,231.5,320.583C256.667,325,281.833,325,299.038,324.534C316.242,324.069,325.484,323.137,330.106,322.672L334.727,322.206"></path></g><g class="edgeLabels"><g class="edgeLabel"><g transform="translate(0, 0)" class="label"><foreignObject height="0" width="0"><div style="display: inline-block; white-space: nowrap;" xmlns="http://www.w3.org/1999/xhtml"><span class="edgeLabel"></span></div></foreignObject></g></g><g class="edgeLabel"><g transform="translate(0, 0)" class="label"><foreignObject height="0" width="0"><div style="display: inline-block; white-space: nowrap;" xmlns="http://www.w3.org/1999/xhtml"><span class="edgeLabel"></span></div></foreignObject></g></g><g class="edgeLabel"><g transform="translate(0, 0)" class="label"><foreignObject height="0" width="0"><div style="display: inline-block; white-space: nowrap;" xmlns="http://www.w3.org/1999/xhtml"><span class="edgeLabel"></span></div></foreignObject></g></g><g transform="translate(231.5, 172.5)" class="edgeLabel"><g transform="translate(-32, -10.5)" class="label"><foreignObject height="21" width="64"><div style="display: inline-block; white-space: nowrap;" xmlns="http://www.w3.org/1999/xhtml"><span class="edgeLabel">触发加载</span></div></foreignObject></g></g><g transform="translate(231.5, 325)" class="edgeLabel"><g transform="translate(-50.5, -10.5)" class="label"><foreignObject height="21" width="101"><div style="display: inline-block; white-space: nowrap;" xmlns="http://www.w3.org/1999/xhtml"><span class="edgeLabel">预先准备/常驻</span></div></foreignObject></g></g></g><g class="nodes"><g transform="translate(371.5, 57.75)" data-id="LModel" data-node="true" id="flowchart-LModel-2" class="node default default flowchart-label"><rect height="36" width="79" y="-18" x="-39.5" ry="0" rx="0" style="" class="basic label-container"></rect><g transform="translate(-32, -10.5)" style="" class="label"><rect></rect><foreignObject height="21" width="64"><div style="display: inline-block; white-space: nowrap;" xmlns="http://www.w3.org/1999/xhtml"><span class="nodeLabel">加载模型</span></div></foreignObject></g></g><g transform="translate(492.5, 57.75)" data-id="Gen1" data-node="true" id="flowchart-Gen1-3" class="node default default flowchart-label"><rect height="36" width="63" y="-18" x="-31.5" ry="0" rx="0" style="" class="basic label-container"></rect><g transform="translate(-24, -10.5)" style="" class="label"><rect></rect><foreignObject height="21" width="48"><div style="display: inline-block; white-space: nowrap;" xmlns="http://www.w3.org/1999/xhtml"><span class="nodeLabel">文生图</span></div></foreignObject></g></g><g transform="translate(371.5, 318.5)" data-id="Gen2" data-node="true" id="flowchart-Gen2-4" class="node default default flowchart-label"><rect height="36" width="63" y="-18" x="-31.5" ry="0" rx="0" style="" class="basic label-container"></rect><g transform="translate(-24, -10.5)" style="" class="label"><rect></rect><foreignObject height="21" width="48"><div style="display: inline-block; white-space: nowrap;" xmlns="http://www.w3.org/1999/xhtml"><span class="nodeLabel">文生图</span></div></foreignObject></g></g><g transform="translate(78, 298.5)" data-id="EA" data-node="true" id="flowchart-EA-1" class="node default default flowchart-label"><rect height="36" width="47" y="-18" x="-23.5" ry="0" rx="0" style="" class="basic label-container"></rect><g transform="translate(-16, -10.5)" style="" class="label"><rect></rect><foreignObject height="21" width="32"><div style="display: inline-block; white-space: nowrap;" xmlns="http://www.w3.org/1999/xhtml"><span class="nodeLabel">分配</span></div></foreignObject></g></g><g transform="translate(78, 172.5)" data-id="LA" data-node="true" id="flowchart-LA-0" class="node default default flowchart-label"><rect height="36" width="47" y="-18" x="-23.5" ry="0" rx="0" style="" class="basic label-container"></rect><g transform="translate(-16, -10.5)" style="" class="label"><rect></rect><foreignObject height="21" width="32"><div style="display: inline-block; white-space: nowrap;" xmlns="http://www.w3.org/1999/xhtml"><span class="nodeLabel">分配</span></div></foreignObject></g></g><g transform="translate(78, 46.5)" data-id="Req1" data-node="true" id="flowchart-Req1-5" class="node default default flowchart-label"><rect height="36" width="56" y="-18" x="-28" ry="18" rx="18" style=""></rect><g transform="translate(-16, -10.5)" style="" class="label"><rect></rect><foreignObject height="21" width="32"><div style="display: inline-block; white-space: nowrap;" xmlns="http://www.w3.org/1999/xhtml"><span class="nodeLabel">请求</span></div></foreignObject></g></g><g transform="translate(78, 424.5)" data-id="Req2" data-node="true" id="flowchart-Req2-9" class="node default default flowchart-label"><rect height="36" width="56" y="-18" x="-28" ry="18" rx="18" style=""></rect><g transform="translate(-16, -10.5)" style="" class="label"><rect></rect><foreignObject height="21" width="32"><div style="display: inline-block; white-space: nowrap;" xmlns="http://www.w3.org/1999/xhtml"><span class="nodeLabel">请求</span></div></foreignObject></g></g></g></g></g></svg>