<svg aria-roledescription="mindmap" role="graphics-document document" viewBox="5 5 1426.86279296875 570.2997436523438" style="max-width: 1426.86279296875px;" xmlns="http://www.w3.org/2000/svg" width="1426.86279296875" id="svg" height="570.2997436523438"><style>#svg{font-family:"trebuchet ms",verdana,arial,sans-serif;font-size:16px;fill:#333;}#svg .error-icon{fill:#552222;}#svg .error-text{fill:#552222;stroke:#552222;}#svg .edge-thickness-normal{stroke-width:2px;}#svg .edge-thickness-thick{stroke-width:3.5px;}#svg .edge-pattern-solid{stroke-dasharray:0;}#svg .edge-pattern-dashed{stroke-dasharray:3;}#svg .edge-pattern-dotted{stroke-dasharray:2;}#svg .marker{fill:#333333;stroke:#333333;}#svg .marker.cross{stroke:#333333;}#svg svg{font-family:"trebuchet ms",verdana,arial,sans-serif;font-size:16px;}#svg .edge{stroke-width:3;}#svg .section--1 rect,#svg .section--1 path,#svg .section--1 circle,#svg .section--1 polygon,#svg .section--1 path{fill:hsl(240, 100%, 76.2745098039%);}#svg .section--1 text{fill:#ffffff;}#svg .node-icon--1{font-size:40px;color:#ffffff;}#svg .section-edge--1{stroke:hsl(240, 100%, 76.2745098039%);}#svg .edge-depth--1{stroke-width:17;}#svg .section--1 line{stroke:hsl(60, 100%, 86.2745098039%);stroke-width:3;}#svg .disabled,#svg .disabled circle,#svg .disabled text{fill:lightgray;}#svg .disabled text{fill:#efefef;}#svg .section-0 rect,#svg .section-0 path,#svg .section-0 circle,#svg .section-0 polygon,#svg .section-0 path{fill:hsl(60, 100%, 73.5294117647%);}#svg .section-0 text{fill:black;}#svg .node-icon-0{font-size:40px;color:black;}#svg .section-edge-0{stroke:hsl(60, 100%, 73.5294117647%);}#svg .edge-depth-0{stroke-width:14;}#svg .section-0 line{stroke:hsl(240, 100%, 83.5294117647%);stroke-width:3;}#svg .disabled,#svg .disabled circle,#svg .disabled text{fill:lightgray;}#svg .disabled text{fill:#efefef;}#svg .section-1 rect,#svg .section-1 path,#svg .section-1 circle,#svg .section-1 polygon,#svg .section-1 path{fill:hsl(80, 100%, 76.2745098039%);}#svg .section-1 text{fill:black;}#svg .node-icon-1{font-size:40px;color:black;}#svg .section-edge-1{stroke:hsl(80, 100%, 76.2745098039%);}#svg .edge-depth-1{stroke-width:11;}#svg .section-1 line{stroke:hsl(260, 100%, 86.2745098039%);stroke-width:3;}#svg .disabled,#svg .disabled circle,#svg .disabled text{fill:lightgray;}#svg .disabled text{fill:#efefef;}#svg .section-2 rect,#svg .section-2 path,#svg .section-2 circle,#svg .section-2 polygon,#svg .section-2 path{fill:hsl(270, 100%, 76.2745098039%);}#svg .section-2 text{fill:#ffffff;}#svg .node-icon-2{font-size:40px;color:#ffffff;}#svg .section-edge-2{stroke:hsl(270, 100%, 76.2745098039%);}#svg .edge-depth-2{stroke-width:8;}#svg .section-2 line{stroke:hsl(90, 100%, 86.2745098039%);stroke-width:3;}#svg .disabled,#svg .disabled circle,#svg .disabled text{fill:lightgray;}#svg .disabled text{fill:#efefef;}#svg .section-3 rect,#svg .section-3 path,#svg .section-3 circle,#svg .section-3 polygon,#svg .section-3 path{fill:hsl(300, 100%, 76.2745098039%);}#svg .section-3 text{fill:black;}#svg .node-icon-3{font-size:40px;color:black;}#svg .section-edge-3{stroke:hsl(300, 100%, 76.2745098039%);}#svg .edge-depth-3{stroke-width:5;}#svg .section-3 line{stroke:hsl(120, 100%, 86.2745098039%);stroke-width:3;}#svg .disabled,#svg .disabled circle,#svg .disabled text{fill:lightgray;}#svg .disabled text{fill:#efefef;}#svg .section-4 rect,#svg .section-4 path,#svg .section-4 circle,#svg .section-4 polygon,#svg .section-4 path{fill:hsl(330, 100%, 76.2745098039%);}#svg .section-4 text{fill:black;}#svg .node-icon-4{font-size:40px;color:black;}#svg .section-edge-4{stroke:hsl(330, 100%, 76.2745098039%);}#svg .edge-depth-4{stroke-width:2;}#svg .section-4 line{stroke:hsl(150, 100%, 86.2745098039%);stroke-width:3;}#svg .disabled,#svg .disabled circle,#svg .disabled text{fill:lightgray;}#svg .disabled text{fill:#efefef;}#svg .section-5 rect,#svg .section-5 path,#svg .section-5 circle,#svg .section-5 polygon,#svg .section-5 path{fill:hsl(0, 100%, 76.2745098039%);}#svg .section-5 text{fill:black;}#svg .node-icon-5{font-size:40px;color:black;}#svg .section-edge-5{stroke:hsl(0, 100%, 76.2745098039%);}#svg .edge-depth-5{stroke-width:-1;}#svg .section-5 line{stroke:hsl(180, 100%, 86.2745098039%);stroke-width:3;}#svg .disabled,#svg .disabled circle,#svg .disabled text{fill:lightgray;}#svg .disabled text{fill:#efefef;}#svg .section-6 rect,#svg .section-6 path,#svg .section-6 circle,#svg .section-6 polygon,#svg .section-6 path{fill:hsl(30, 100%, 76.2745098039%);}#svg .section-6 text{fill:black;}#svg .node-icon-6{font-size:40px;color:black;}#svg .section-edge-6{stroke:hsl(30, 100%, 76.2745098039%);}#svg .edge-depth-6{stroke-width:-4;}#svg .section-6 line{stroke:hsl(210, 100%, 86.2745098039%);stroke-width:3;}#svg .disabled,#svg .disabled circle,#svg .disabled text{fill:lightgray;}#svg .disabled text{fill:#efefef;}#svg .section-7 rect,#svg .section-7 path,#svg .section-7 circle,#svg .section-7 polygon,#svg .section-7 path{fill:hsl(90, 100%, 76.2745098039%);}#svg .section-7 text{fill:black;}#svg .node-icon-7{font-size:40px;color:black;}#svg .section-edge-7{stroke:hsl(90, 100%, 76.2745098039%);}#svg .edge-depth-7{stroke-width:-7;}#svg .section-7 line{stroke:hsl(270, 100%, 86.2745098039%);stroke-width:3;}#svg .disabled,#svg .disabled circle,#svg .disabled text{fill:lightgray;}#svg .disabled text{fill:#efefef;}#svg .section-8 rect,#svg .section-8 path,#svg .section-8 circle,#svg .section-8 polygon,#svg .section-8 path{fill:hsl(150, 100%, 76.2745098039%);}#svg .section-8 text{fill:black;}#svg .node-icon-8{font-size:40px;color:black;}#svg .section-edge-8{stroke:hsl(150, 100%, 76.2745098039%);}#svg .edge-depth-8{stroke-width:-10;}#svg .section-8 line{stroke:hsl(330, 100%, 86.2745098039%);stroke-width:3;}#svg .disabled,#svg .disabled circle,#svg .disabled text{fill:lightgray;}#svg .disabled text{fill:#efefef;}#svg .section-9 rect,#svg .section-9 path,#svg .section-9 circle,#svg .section-9 polygon,#svg .section-9 path{fill:hsl(180, 100%, 76.2745098039%);}#svg .section-9 text{fill:black;}#svg .node-icon-9{font-size:40px;color:black;}#svg .section-edge-9{stroke:hsl(180, 100%, 76.2745098039%);}#svg .edge-depth-9{stroke-width:-13;}#svg .section-9 line{stroke:hsl(0, 100%, 86.2745098039%);stroke-width:3;}#svg .disabled,#svg .disabled circle,#svg .disabled text{fill:lightgray;}#svg .disabled text{fill:#efefef;}#svg .section-10 rect,#svg .section-10 path,#svg .section-10 circle,#svg .section-10 polygon,#svg .section-10 path{fill:hsl(210, 100%, 76.2745098039%);}#svg .section-10 text{fill:black;}#svg .node-icon-10{font-size:40px;color:black;}#svg .section-edge-10{stroke:hsl(210, 100%, 76.2745098039%);}#svg .edge-depth-10{stroke-width:-16;}#svg .section-10 line{stroke:hsl(30, 100%, 86.2745098039%);stroke-width:3;}#svg .disabled,#svg .disabled circle,#svg .disabled text{fill:lightgray;}#svg .disabled text{fill:#efefef;}#svg .section-root rect,#svg .section-root path,#svg .section-root circle,#svg .section-root polygon{fill:hsl(240, 100%, 46.2745098039%);}#svg .section-root text{fill:#ffffff;}#svg .icon-container{height:100%;display:flex;justify-content:center;align-items:center;}#svg .edge{fill:none;}#svg .mindmap-node-label{dy:1em;alignment-baseline:middle;text-anchor:middle;dominant-baseline:middle;text-align:center;}#svg .today{display:none;}#svg .label foreignObject{overflow:visible;}#svg :root{--mermaid-font-family:"trebuchet ms",verdana,arial,sans-serif;}</style><g></g><g class="mindmap-edges"><path class="edge section-edge-0 edge-depth-1" d="M 747.8886040135092,132.7429916061221 L 800.6291116762453,88.16310640813717 L853.3696193389815,43.58322121015223"></path><path class="edge section-edge-0 edge-depth-1" d="M 750.8500909553584,138.28592337945955 L 823.8395939502353,117.32512920725819 L896.8290969451123,96.36433503505683"></path><path class="edge section-edge-0 edge-depth-1" d="M 741.7640077803344,128.4055735536217 L 748.9706530393839,109.45265360281965 L756.1772982984335,90.49973365201761"></path><path class="edge section-edge-0 edge-depth-1" d="M 724.6969232609164,133.08442641217562 L 672.8419054587889,91.80773978406089 L620.9868876566615,50.53105315594614"></path><path class="edge section-edge-0 edge-depth-1" d="M 751.3956727979205,143.48106975261794 L 818.589939478531,148.21815362979706 L885.7842061591416,152.95523750697618"></path><path class="edge section-edge-0 edge-depth-0" d="M 683.4553450641718,281.37370164170443 L 707.272126616992,218.90785845072645 L731.0889081698122,156.4420152597485"></path><path class="edge section-edge-1 edge-depth-1" d="M 423.03538648471863,397.9335237984441 L 321.4926604863903,435.58808713279564 L219.94993448806204,473.24265046714714"></path><path class="edge section-edge-1 edge-depth-1" d="M 423.513428050753,399.07567963524707 L 389.40534846256423,415.0362352747851 L355.29726887437545,430.9967909143231"></path><path class="edge section-edge-1 edge-depth-1" d="M 430.4921746680969,406.1845460201828 L 409.6004896717277,448.76356140096095 L388.7088046753585,491.3425767817391"></path><path class="edge section-edge-1 edge-depth-1" d="M 422.11564352231505,393.413165319326 L 303.51685351422947,398.9139675153177 L184.9180635061439,404.4147697113094"></path><path class="edge section-edge-1 edge-depth-0" d="M 664.2027550616687,301.00629859436935 L 557.605489400573,344.0538462340539 L451.00822373947733,387.1013938737384"></path><path class="edge section-edge-2 edge-depth-1" d="M 556.995377368748,279.2586774964194 L 570.291591564021,263.7256584690599 L583.587805759294,248.19263944170044"></path><path class="edge section-edge-2 edge-depth-1" d="M 532.9375969135516,295.1718954339544 L 478.89589009218105,312.2416354157169 L424.8541832708105,329.3113753974795"></path><path class="edge section-edge-2 edge-depth-1" d="M 562.0287893035382,288.1395391178736 L 659.7645439396371,271.52102215794037 L757.5002985757359,254.90250519800713"></path><path class="edge section-edge-2 edge-depth-1" d="M 558.6483711410565,300.39424109894895 L 585.0350205948723,322.9247411295037 L611.4216700486882,345.4552411600584"></path><path class="edge section-edge-2 edge-depth-1" d="M 533.8601359150464,283.8752257794853 L 484.11027952922916,258.6719982308955 L434.3604231434119,233.46877068230575"></path><path class="edge section-edge-2 edge-depth-0" d="M 663.1212541389552,294.8470862243474 L 612.676240634392,293.02174063974246 L562.2312271298288,291.19639505513754"></path><path class="edge section-edge-3 edge-depth-1" d="M 794.8007511153637,383.1179872485802 L 828.3360781718391,421.97331962419855 L861.8714052283144,460.8286519998169"></path><path class="edge section-edge-3 edge-depth-1" d="M 799.5567189929629,375.38243183849306 L 870.1566757262658,392.9390109409867 L940.7566324595687,410.4955900434803"></path><path class="edge section-edge-3 edge-depth-1" d="M 792.2762989926606,358.6455014806521 L 803.4756280668038,338.45623771132887 L814.674957140947,318.2669739420056"></path><path class="edge section-edge-3 edge-depth-1" d="M 770.4757037207621,375.5099320331359 L 697.2248379762829,394.4092641908103 L623.9739722318036,413.3085963484847"></path><path class="edge section-edge-3 edge-depth-0" d="M 690.316148937635,304.1098922583048 L 731.5557523820403,333.57601560423205 L772.7953558264455,363.0421389501593"></path><path class="edge section-edge-4 edge-depth-1" d="M 935.9456010463023,204.96109299440076 L 1001.1360898777534,169.6993526977174 L1066.3265787092046,134.43761240103402"></path><path class="edge section-edge-4 edge-depth-1" d="M 937.6950575664115,213.4033770090715 L 1010.5890358461659,219.77335319707169 L1083.4830141259201,226.14332938507192"></path><path class="edge section-edge-4 edge-depth-1" d="M 937.5811409948408,209.8399569972486 L 1041.0578907373792,194.0866156979075 L1144.5346404799177,178.33327439856637"></path><path class="edge section-edge-4 edge-depth-1" d="M 933.7910299417127,222.25333361378904 L 959.5772080164968,245.9763377043059 L985.3633860912809,269.6993417948228"></path><path class="edge section-edge-4 edge-depth-0" d="M 692.3110141346643,290.5550238369642 L 800.431724394093,253.74352729788507 L908.5524346535216,216.93203075880587"></path><path class="edge section-edge-5 edge-depth-1" d="M 1006.9930997032969,354.318749096287 L 1060.5697999800582,374.91947077780816 L1114.1465002568195,395.52019245932934"></path><path class="edge section-edge-5 edge-depth-1" d="M 1003.3816627641061,359.754952405493 L 1044.5142734181645,402.59136559533863 L1085.6468840722227,445.4277787851844"></path><path class="edge section-edge-5 edge-depth-1" d="M 1007.9290985130815,347.55857852355257 L 1090.1336356842808,339.981410214491 L1172.33817285548,332.40424190542944"></path><path class="edge section-edge-5 edge-depth-1" d="M 1007.9505159568873,350.0557446073592 L 1154.4276089898658,361.02709536111354 L1300.9047020228445,371.998446114868"></path><path class="edge section-edge-5 edge-depth-1" d="M 1006.9193036401036,343.3638427631559 L 1086.002973643428,311.7260408387209 L1165.0866436467527,280.0882389142859"></path><path class="edge section-edge-5 edge-depth-0" d="M 692.8991565145692,297.9041709626961 L 835.5519300819122,322.1624324668687 L978.2047036492553,346.4206939710413"></path><path class="edge section-edge-6 edge-depth-1" d="M 761.9880322950673,438.4753165989149 L 784.3165775923761,485.65831153658405 L806.6451228896849,532.8413064742532"></path><path class="edge section-edge-6 edge-depth-1" d="M 769.543149605314,430.37578197705915 L 871.2070321602848,470.09780978018557 L972.8709147152556,509.819837583312"></path><path class="edge section-edge-6 edge-depth-1" d="M 744.5926088956801,435.1373905509911 L 712.4899654907913,465.0218558864468 L680.3873220859025,494.90632122190254"></path><path class="edge section-edge-6 edge-depth-1" d="M 740.8000140440512,427.5238445708512 L 647.1579290911782,444.05010794173336 L553.5158441383052,460.5763713126155"></path><path class="edge section-edge-6 edge-depth-0" d="M 685.8101534122384,308.2631154144796 L 716.841589501908,360.1531933332264 L747.8730255915775,412.0432712519732"></path><path class="edge section-edge-7 edge-depth-1" d="M 526.9169212839814,177.58876379757368 L 407.1945169350562,149.48986783560846 L287.47211258613095,121.39097187364325"></path><path class="edge section-edge-7 edge-depth-1" d="M 526.6542323555054,179.01471440727715 L 463.5210896359265,170.51497012586768 L400.38794691634763,162.0152258444582"></path><path class="edge section-edge-7 edge-depth-1" d="M 530.116881613571,171.27106769227868 L 473.2992197003366,122.71533345948453 L416.48155778710236,74.15959922669037"></path><path class="edge section-edge-7 edge-depth-1" d="M 556.4803175161942,182.1080064178455 L 643.0033920077395,188.42287997501447 L729.5264664992849,194.73775353218343"></path><path class="edge section-edge-7 edge-depth-1" d="M 550.369115779242,168.90436311130492 L 565.9956849507963,147.51603079839023 L581.6222541223507,126.12769848547553"></path><path class="edge section-edge-7 edge-depth-0" d="M 666.6108175816287,285.7595716322518 L 609.8157766092827,238.202820988285 L553.0207356369367,190.64607034431822"></path><path class="edge section-edge-8 edge-depth-1" d="M 353.09560340494085,289.14557029446553 L 311.18560890069097,319.60431449312483 L269.2756143964411,350.06305869178414"></path><path class="edge section-edge-8 edge-depth-1" d="M 350.2772583022808,281.5221561021664 L 274.06750729272454,287.61359186616 L197.85775628316827,293.7050276301536"></path><path class="edge section-edge-8 edge-depth-1" d="M 352.600433824662,272.23350994703173 L 306.0837554188733,242.42282778043705 L259.5670770130846,212.61214561384242"></path><path class="edge section-edge-8 edge-depth-1" d="M 350.55495520623964,283.43437501426286 L 227.11478539737317,309.5728773080156 L103.6746155885067,335.7113796017684"></path><path class="edge section-edge-8 edge-depth-1" d="M 350.34856582650826,278.44136562104524 L 234.5094121661274,263.76274896574586 L118.67025850574652,249.08413231044648"></path><path class="edge section-edge-8 edge-depth-0" d="M 663.1287952958598,294.66822258006823 L 521.6705072438408,287.85826187002357 L380.21221919182176,281.0483011599789"></path></g><g class="mindmap-nodes"><g transform="translate(635.6114436929353, 276.4895040851786)" class="mindmap-node section--1 section-root"><g transform="translate(42.5, 18.9)"><circle r="42.5" class="node-bkg node-circle" id="node-0"></circle></g><g transform="translate(42.5, 5)" text-anchor="middle" dominant-baseline="middle" alignment-baseline="middle" dy="1em"><g><rect class="background"></rect><text y="-10.1"><tspan dy="1.1em" y="-0.1em" x="0" class="text-outer-tspan"><tspan font-weight="normal" class="text-inner-tspan" font-style="normal">场景打光</tspan></tspan></text></g></g></g><g transform="translate(693.9328095410486, 123.52621281627432)" class="mindmap-node section-0"><g><path d="M0 32.8 v-27.799999999999997 q0,-5 5,-5 h75 q5,0 5,5 v32.8 H0 Z" class="node-bkg node-no-border" id="node-1"></path><line y2="37.8" x2="85" y1="37.8" x1="0" class="node-line-0"></line></g><g transform="translate(42.5, 5)" text-anchor="middle" dominant-baseline="middle" alignment-baseline="middle" dy="1em"><g><rect class="background"></rect><text y="-10.1"><tspan dy="1.1em" y="-0.1em" x="0" class="text-outer-tspan"><tspan font-weight="normal" class="text-inner-tspan" font-style="normal">核心思路</tspan></tspan></text></g></g></g><g transform="translate(806.825413811442, 15)" class="mindmap-node section-0"><g><path d="M0 32.8 v-27.799999999999997 q0,-5 5,-5 h106 q5,0 5,5 v32.8 H0 Z" class="node-bkg node-no-border" id="node-2"></path><line y2="37.8" x2="116" y1="37.8" x1="0" class="node-line-0"></line></g><g transform="translate(58, 5)" text-anchor="middle" dominant-baseline="middle" alignment-baseline="middle" dy="1em"><g><rect class="background"></rect><text y="-10.1"><tspan dy="1.1em" y="-0.1em" x="0" class="text-outer-tspan"><tspan font-weight="normal" class="text-inner-tspan" font-style="normal">引导视觉焦点</tspan></tspan></text></g></g></g><g transform="translate(845.246378359422, 73.32404559824204)" class="mindmap-node section-0"><g><path d="M0 32.8 v-27.799999999999997 q0,-5 5,-5 h122 q5,0 5,5 v32.8 H0 Z" class="node-bkg node-no-border" id="node-3"></path><line y2="37.8" x2="132" y1="37.8" x1="0" class="node-line-0"></line></g><g transform="translate(66, 5)" text-anchor="middle" dominant-baseline="middle" alignment-baseline="middle" dy="1em"><g><rect class="background"></rect><text y="-10.1"><tspan dy="1.1em" y="-0.1em" x="0" class="text-outer-tspan"><tspan font-weight="normal" class="text-inner-tspan" font-style="normal">设计师意图传达</tspan></tspan></text></g></g></g><g transform="translate(695.5084965377192, 57.579094389364975)" class="mindmap-node section-0"><g><path d="M0 32.8 v-27.799999999999997 q0,-5 5,-5 h122 q5,0 5,5 v32.8 H0 Z" class="node-bkg node-no-border" id="node-4"></path><line y2="37.8" x2="132" y1="37.8" x1="0" class="node-line-0"></line></g><g transform="translate(66, 5)" text-anchor="middle" dominant-baseline="middle" alignment-baseline="middle" dy="1em"><g><rect class="background"></rect><text y="-10.1"><tspan dy="1.1em" y="-0.1em" x="0" class="text-outer-tspan"><tspan font-weight="normal" class="text-inner-tspan" font-style="normal">灯光与场景美化</tspan></tspan></text></g></g></g><g transform="translate(535.2510013765292, 22.289266751847435)" class="mindmap-node section-0"><g><path d="M0 32.8 v-27.799999999999997 q0,-5 5,-5 h138 q5,0 5,5 v32.8 H0 Z" class="node-bkg node-no-border" id="node-5"></path><line y2="37.8" x2="148" y1="37.8" x1="0" class="node-line-0"></line></g><g transform="translate(74, 5)" text-anchor="middle" dominant-baseline="middle" alignment-baseline="middle" dy="1em"><g><rect class="background"></rect><text y="-10.1"><tspan dy="1.1em" y="-0.1em" x="0" class="text-outer-tspan"><tspan font-weight="normal" class="text-inner-tspan" font-style="normal">无声对话辅助工具</tspan></tspan></text></g></g></g><g transform="translate(818.2470694160135, 135.11009444331978)" class="mindmap-node section-0"><g><path d="M0 32.8 v-27.799999999999997 q0,-5 5,-5 h155 q5,0 5,5 v32.8 H0 Z" class="node-bkg node-no-border" id="node-6"></path><line y2="37.8" x2="165" y1="37.8" x1="0" class="node-line-0"></line></g><g transform="translate(82.5, 5)" text-anchor="middle" dominant-baseline="middle" alignment-baseline="middle" dy="1em"><g><rect class="background"></rect><text y="-10.1"><tspan dy="1.1em" y="-0.1em" x="0" class="text-outer-tspan"><tspan font-weight="normal" class="text-inner-tspan" font-style="normal">镜头、灯光氛围营造</tspan></tspan></text></g></g></g><g transform="translate(355.0995351082107, 373.8181883829292)" class="mindmap-node section-1"><g><path d="M0 32.8 v-27.799999999999997 q0,-5 5,-5 h154 q5,0 5,5 v32.8 H0 Z" class="node-bkg node-no-border" id="node-7"></path><line y2="37.8" x2="164" y1="37.8" x1="0" class="node-line-1"></line></g><g transform="translate(82, 5)" text-anchor="middle" dominant-baseline="middle" alignment-baseline="middle" dy="1em"><g><rect class="background"></rect><text y="-10.1"><tspan dy="1.1em" y="-0.1em" x="0" class="text-outer-tspan"><tspan font-weight="normal" class="text-inner-tspan" font-style="normal">影视与游戏行业对比</tspan></tspan></text></g></g></g><g transform="translate(131.88578586456993, 459.55798588266214)" class="mindmap-node section-1"><g><path d="M0 32.8 v-27.799999999999997 q0,-5 5,-5 h138 q5,0 5,5 v32.8 H0 Z" class="node-bkg node-no-border" id="node-8"></path><line y2="37.8" x2="148" y1="37.8" x1="0" class="node-line-1"></line></g><g transform="translate(74, 5)" text-anchor="middle" dominant-baseline="middle" alignment-baseline="middle" dy="1em"><g><rect class="background"></rect><text y="-10.1"><tspan dy="1.1em" y="-0.1em" x="0" class="text-outer-tspan"><tspan font-weight="normal" class="text-inner-tspan" font-style="normal">影视行业成熟度高</tspan></tspan></text></g></g></g><g transform="translate(259.71116181691775, 418.45428216664106)" class="mindmap-node section-1"><g><path d="M0 32.8 v-27.799999999999997 q0,-5 5,-5 h154 q5,0 5,5 v32.8 H0 Z" class="node-bkg node-no-border" id="node-9"></path><line y2="37.8" x2="164" y1="37.8" x1="0" class="node-line-1"></line></g><g transform="translate(82, 5)" text-anchor="middle" dominant-baseline="middle" alignment-baseline="middle" dy="1em"><g><rect class="background"></rect><text y="-10.1"><tspan dy="1.1em" y="-0.1em" x="0" class="text-outer-tspan"><tspan font-weight="normal" class="text-inner-tspan" font-style="normal">游戏行业玩家自主性</tspan></tspan></text></g></g></g><g transform="translate(300.1014442352447, 485.90893441899277)" class="mindmap-node section-1"><g><path d="M0 32.8 v-27.799999999999997 q0,-5 5,-5 h154 q5,0 5,5 v32.8 H0 Z" class="node-bkg node-no-border" id="node-10"></path><line y2="37.8" x2="164" y1="37.8" x1="0" class="node-line-1"></line></g><g transform="translate(82, 5)" text-anchor="middle" dominant-baseline="middle" alignment-baseline="middle" dy="1em"><g><rect class="background"></rect><text y="-10.1"><tspan dy="1.1em" y="-0.1em" x="0" class="text-outer-tspan"><tspan font-weight="normal" class="text-inner-tspan" font-style="normal">灯光提升游戏可能性</tspan></tspan></text></g></g></g><g transform="translate(95.93417192024822, 386.2097466477063)" class="mindmap-node section-1"><g><path d="M0 32.8 v-27.799999999999997 q0,-5 5,-5 h138 q5,0 5,5 v32.8 H0 Z" class="node-bkg node-no-border" id="node-11"></path><line y2="37.8" x2="148" y1="37.8" x1="0" class="node-line-1"></line></g><g transform="translate(74, 5)" text-anchor="middle" dominant-baseline="middle" alignment-baseline="middle" dy="1em"><g><rect class="background"></rect><text y="-10.1"><tspan dy="1.1em" y="-0.1em" x="0" class="text-outer-tspan"><tspan font-weight="normal" class="text-inner-tspan" font-style="normal">降低游戏理解成本</tspan></tspan></text></g></g></g><g transform="translate(481.24103757584874, 271.75397719430634)" class="mindmap-node section-2"><g><path d="M0 32.8 v-27.799999999999997 q0,-5 5,-5 h122 q5,0 5,5 v32.8 H0 Z" class="node-bkg node-no-border" id="node-12"></path><line y2="37.8" x2="132" y1="37.8" x1="0" class="node-line-2"></line></g><g transform="translate(66, 5)" text-anchor="middle" dominant-baseline="middle" alignment-baseline="middle" dy="1em"><g><rect class="background"></rect><text y="-10.1"><tspan dy="1.1em" y="-0.1em" x="0" class="text-outer-tspan"><tspan font-weight="normal" class="text-inner-tspan" font-style="normal">视觉焦点与对比</tspan></tspan></text></g></g></g><g transform="translate(519.3421455521933, 217.89733974381352)" class="mindmap-node section-2"><g><path d="M0 32.8 v-27.799999999999997 q0,-5 5,-5 h138 q5,0 5,5 v32.8 H0 Z" class="node-bkg node-no-border" id="node-13"></path><line y2="37.8" x2="148" y1="37.8" x1="0" class="node-line-2"></line></g><g transform="translate(74, 5)" text-anchor="middle" dominant-baseline="middle" alignment-baseline="middle" dy="1em"><g><rect class="background"></rect><text y="-10.1"><tspan dy="1.1em" y="-0.1em" x="0" class="text-outer-tspan"><tspan font-weight="normal" class="text-inner-tspan" font-style="normal">明暗对比增强焦点</tspan></tspan></text></g></g></g><g transform="translate(344.05074260851336, 314.92929363712756)" class="mindmap-node section-2"><g><path d="M0 32.8 v-27.799999999999997 q0,-5 5,-5 h123 q5,0 5,5 v32.8 H0 Z" class="node-bkg node-no-border" id="node-14"></path><line y2="37.8" x2="133" y1="37.8" x1="0" class="node-line-2"></line></g><g transform="translate(66.5, 5)" text-anchor="middle" dominant-baseline="middle" alignment-baseline="middle" dy="1em"><g><rect class="background"></rect><text y="-10.1"><tspan dy="1.1em" y="-0.1em" x="0" class="text-outer-tspan"><tspan font-weight="normal" class="text-inner-tspan" font-style="normal">心理学原理应用</tspan></tspan></text></g></g></g><g transform="translate(690.2880503034254, 233.48806712157443)" class="mindmap-node section-2"><g><path d="M0 32.8 v-27.799999999999997 q0,-5 5,-5 h154 q5,0 5,5 v32.8 H0 Z" class="node-bkg node-no-border" id="node-15"></path><line y2="37.8" x2="164" y1="37.8" x1="0" class="node-line-2"></line></g><g transform="translate(82, 5)" text-anchor="middle" dominant-baseline="middle" alignment-baseline="middle" dy="1em"><g><rect class="background"></rect><text y="-10.1"><tspan dy="1.1em" y="-0.1em" x="0" class="text-outer-tspan"><tspan font-weight="normal" class="text-inner-tspan" font-style="normal">商业与游戏设计利用</tspan></tspan></text></g></g></g><g transform="translate(564.8290036138959, 336.29550506470105)" class="mindmap-node section-2"><g><path d="M0 32.8 v-27.799999999999997 q0,-5 5,-5 h106 q5,0 5,5 v32.8 H0 Z" class="node-bkg node-no-border" id="node-16"></path><line y2="37.8" x2="116" y1="37.8" x1="0" class="node-line-2"></line></g><g transform="translate(58, 5)" text-anchor="middle" dominant-baseline="middle" alignment-baseline="middle" dy="1em"><g><rect class="background"></rect><text y="-10.1"><tspan dy="1.1em" y="-0.1em" x="0" class="text-outer-tspan"><tspan font-weight="normal" class="text-inner-tspan" font-style="normal">电影案例分析</tspan></tspan></text></g></g></g><g transform="translate(338.4795214826096, 207.7900192674847)" class="mindmap-node section-2"><g><path d="M0 32.8 v-27.799999999999997 q0,-5 5,-5 h155 q5,0 5,5 v32.8 H0 Z" class="node-bkg node-no-border" id="node-17"></path><line y2="37.8" x2="165" y1="37.8" x1="0" class="node-line-2"></line></g><g transform="translate(82.5, 5)" text-anchor="middle" dominant-baseline="middle" alignment-baseline="middle" dy="1em"><g><rect class="background"></rect><text y="-10.1"><tspan dy="1.1em" y="-0.1em" x="0" class="text-outer-tspan"><tspan font-weight="normal" class="text-inner-tspan" font-style="normal">材质对比与视觉设计</tspan></tspan></text></g></g></g><g transform="translate(711.0000610711453, 352.86252712328553)" class="mindmap-node section-3"><g><path d="M0 32.8 v-27.799999999999997 q0,-5 5,-5 h138 q5,0 5,5 v32.8 H0 Z" class="node-bkg node-no-border" id="node-18"></path><line y2="37.8" x2="148" y1="37.8" x1="0" class="node-line-3"></line></g><g transform="translate(74, 5)" text-anchor="middle" dominant-baseline="middle" alignment-baseline="middle" dy="1em"><g><rect class="background"></rect><text y="-10.1"><tspan dy="1.1em" y="-0.1em" x="0" class="text-outer-tspan"><tspan font-weight="normal" class="text-inner-tspan" font-style="normal">清晰度与视觉聚焦</tspan></tspan></text></g></g></g><g transform="translate(789.6720952725328, 453.2841121251116)" class="mindmap-node section-3"><g><path d="M0 32.8 v-27.799999999999997 q0,-5 5,-5 h154 q5,0 5,5 v32.8 H0 Z" class="node-bkg node-no-border" id="node-19"></path><line y2="37.8" x2="164" y1="37.8" x1="0" class="node-line-3"></line></g><g transform="translate(82, 5)" text-anchor="middle" dominant-baseline="middle" alignment-baseline="middle" dy="1em"><g><rect class="background"></rect><text y="-10.1"><tspan dy="1.1em" y="-0.1em" x="0" class="text-outer-tspan"><tspan font-weight="normal" class="text-inner-tspan" font-style="normal">眼睛运动与焦点形成</tspan></tspan></text></g></g></g><g transform="translate(881.3132903813863, 395.2154947586879)" class="mindmap-node section-3"><g><path d="M0 32.8 v-27.799999999999997 q0,-5 5,-5 h138 q5,0 5,5 v32.8 H0 Z" class="node-bkg node-no-border" id="node-20"></path><line y2="37.8" x2="148" y1="37.8" x1="0" class="node-line-3"></line></g><g transform="translate(74, 5)" text-anchor="middle" dominant-baseline="middle" alignment-baseline="middle" dy="1em"><g><rect class="background"></rect><text y="-10.1"><tspan dy="1.1em" y="-0.1em" x="0" class="text-outer-tspan"><tspan font-weight="normal" class="text-inner-tspan" font-style="normal">虚实结合引导视觉</tspan></tspan></text></g></g></g><g transform="translate(747.9511950624623, 286.24994829937225)" class="mindmap-node section-3"><g><path d="M0 32.8 v-27.799999999999997 q0,-5 5,-5 h138 q5,0 5,5 v32.8 H0 Z" class="node-bkg node-no-border" id="node-21"></path><line y2="37.8" x2="148" y1="37.8" x1="0" class="node-line-3"></line></g><g transform="translate(74, 5)" text-anchor="middle" dominant-baseline="middle" alignment-baseline="middle" dy="1em"><g><rect class="background"></rect><text y="-10.1"><tspan dy="1.1em" y="-0.1em" x="0" class="text-outer-tspan"><tspan font-weight="normal" class="text-inner-tspan" font-style="normal">游戏场景细节处理</tspan></tspan></text></g></g></g><g transform="translate(535.4496148814204, 398.1560012583351)" class="mindmap-node section-3"><g><path d="M0 32.8 v-27.799999999999997 q0,-5 5,-5 h138 q5,0 5,5 v32.8 H0 Z" class="node-bkg node-no-border" id="node-22"></path><line y2="37.8" x2="148" y1="37.8" x1="0" class="node-line-3"></line></g><g transform="translate(74, 5)" text-anchor="middle" dominant-baseline="middle" alignment-baseline="middle" dy="1em"><g><rect class="background"></rect><text y="-10.1"><tspan dy="1.1em" y="-0.1em" x="0" class="text-outer-tspan"><tspan font-weight="normal" class="text-inner-tspan" font-style="normal">AI图像与视觉聚焦</tspan></tspan></text></g></g></g><g transform="translate(856.7520050952506, 193.19755051059144)" class="mindmap-node section-4"><g><path d="M0 32.8 v-27.799999999999997 q0,-5 5,-5 h122 q5,0 5,5 v32.8 H0 Z" class="node-bkg node-no-border" id="node-23"></path><line y2="37.8" x2="132" y1="37.8" x1="0" class="node-line-4"></line></g><g transform="translate(66, 5)" text-anchor="middle" dominant-baseline="middle" alignment-baseline="middle" dy="1em"><g><rect class="background"></rect><text y="-10.1"><tspan dy="1.1em" y="-0.1em" x="0" class="text-outer-tspan"><tspan font-weight="normal" class="text-inner-tspan" font-style="normal">空间层次与灯光</tspan></tspan></text></g></g></g><g transform="translate(997.5201746602561, 108.40115488484332)" class="mindmap-node section-4"><g><path d="M0 32.8 v-27.799999999999997 q0,-5 5,-5 h154 q5,0 5,5 v32.8 H0 Z" class="node-bkg node-no-border" id="node-24"></path><line y2="37.8" x2="164" y1="37.8" x1="0" class="node-line-4"></line></g><g transform="translate(82, 5)" text-anchor="middle" dominant-baseline="middle" alignment-baseline="middle" dy="1em"><g><rect class="background"></rect><text y="-10.1"><tspan dy="1.1em" y="-0.1em" x="0" class="text-outer-tspan"><tspan font-weight="normal" class="text-inner-tspan" font-style="normal">角色展示界面空间感</tspan></tspan></text></g></g></g><g transform="translate(1016.426066597081, 208.54915588355198)" class="mindmap-node section-4"><g><path d="M0 32.8 v-27.799999999999997 q0,-5 5,-5 h154 q5,0 5,5 v32.8 H0 Z" class="node-bkg node-no-border" id="node-25"></path><line y2="37.8" x2="164" y1="37.8" x1="0" class="node-line-4"></line></g><g transform="translate(82, 5)" text-anchor="middle" dominant-baseline="middle" alignment-baseline="middle" dy="1em"><g><rect class="background"></rect><text y="-10.1"><tspan dy="1.1em" y="-0.1em" x="0" class="text-outer-tspan"><tspan font-weight="normal" class="text-inner-tspan" font-style="normal">灯光处理与立体感受</tspan></tspan></text></g></g></g><g transform="translate(1077.3637763795077, 157.17568088522353)" class="mindmap-node section-4"><g><path d="M0 32.8 v-27.799999999999997 q0,-5 5,-5 h154 q5,0 5,5 v32.8 H0 Z" class="node-bkg node-no-border" id="node-26"></path><line y2="37.8" x2="164" y1="37.8" x1="0" class="node-line-4"></line></g><g transform="translate(82, 5)" text-anchor="middle" dominant-baseline="middle" alignment-baseline="middle" dy="1em"><g><rect class="background"></rect><text y="-10.1"><tspan dy="1.1em" y="-0.1em" x="0" class="text-outer-tspan"><tspan font-weight="normal" class="text-inner-tspan" font-style="normal">高光分布与质感表现</tspan></tspan></text></g></g></g><g transform="translate(914.402410937743, 260.95512489802036)" class="mindmap-node section-4"><g><path d="M0 32.8 v-27.799999999999997 q0,-5 5,-5 h154 q5,0 5,5 v32.8 H0 Z" class="node-bkg node-no-border" id="node-27"></path><line y2="37.8" x2="164" y1="37.8" x1="0" class="node-line-4"></line></g><g transform="translate(82, 5)" text-anchor="middle" dominant-baseline="middle" alignment-baseline="middle" dy="1em"><g><rect class="background"></rect><text y="-10.1"><tspan dy="1.1em" y="-0.1em" x="0" class="text-outer-tspan"><tspan font-weight="normal" class="text-inner-tspan" font-style="normal">物理效果与视觉服务</tspan></tspan></text></g></g></g><g transform="translate(910.9924164708892, 330.03536084855887)" class="mindmap-node section-5"><g><path d="M0 32.8 v-27.799999999999997 q0,-5 5,-5 h154 q5,0 5,5 v32.8 H0 Z" class="node-bkg node-no-border" id="node-28"></path><line y2="37.8" x2="164" y1="37.8" x1="0" class="node-line-5"></line></g><g transform="translate(82, 5)" text-anchor="middle" dominant-baseline="middle" alignment-baseline="middle" dy="1em"><g><rect class="background"></rect><text y="-10.1"><tspan dy="1.1em" y="-0.1em" x="0" class="text-outer-tspan"><tspan font-weight="normal" class="text-inner-tspan" font-style="normal">色彩理论与情绪表达</tspan></tspan></text></g></g></g><g transform="translate(1062.1471834892272, 382.0035807070575)" class="mindmap-node section-5"><g><path d="M0 32.8 v-27.799999999999997 q0,-5 5,-5 h122 q5,0 5,5 v32.8 H0 Z" class="node-bkg node-no-border" id="node-29"></path><line y2="37.8" x2="132" y1="37.8" x1="0" class="node-line-5"></line></g><g transform="translate(66, 5)" text-anchor="middle" dominant-baseline="middle" alignment-baseline="middle" dy="1em"><g><rect class="background"></rect><text y="-10.1"><tspan dy="1.1em" y="-0.1em" x="0" class="text-outer-tspan"><tspan font-weight="normal" class="text-inner-tspan" font-style="normal">色彩与情绪关联</tspan></tspan></text></g></g></g><g transform="translate(1030.0361303654395, 437.34737034211855)" class="mindmap-node section-5"><g><path d="M0 32.8 v-27.799999999999997 q0,-5 5,-5 h122 q5,0 5,5 v32.8 H0 Z" class="node-bkg node-no-border" id="node-30"></path><line y2="37.8" x2="132" y1="37.8" x1="0" class="node-line-5"></line></g><g transform="translate(66, 5)" text-anchor="middle" dominant-baseline="middle" alignment-baseline="middle" dy="1em"><g><rect class="background"></rect><text y="-10.1"><tspan dy="1.1em" y="-0.1em" x="0" class="text-outer-tspan"><tspan font-weight="normal" class="text-inner-tspan" font-style="normal">色彩联想与过渡</tspan></tspan></text></g></g></g><g transform="translate(1105.2748548976724, 312.1274595804232)" class="mindmap-node section-5"><g><path d="M0 32.8 v-27.799999999999997 q0,-5 5,-5 h154 q5,0 5,5 v32.8 H0 Z" class="node-bkg node-no-border" id="node-31"></path><line y2="37.8" x2="164" y1="37.8" x1="0" class="node-line-5"></line></g><g transform="translate(82, 5)" text-anchor="middle" dominant-baseline="middle" alignment-baseline="middle" dy="1em"><g><rect class="background"></rect><text y="-10.1"><tspan dy="1.1em" y="-0.1em" x="0" class="text-outer-tspan"><tspan font-weight="normal" class="text-inner-tspan" font-style="normal">设计规范与颜色限制</tspan></tspan></text></g></g></g><g transform="translate(1209.8628015088425, 354.21882987366837)" class="mindmap-node section-5"><g><path d="M0 32.8 v-27.799999999999997 q0,-5 5,-5 h202 q5,0 5,5 v32.8 H0 Z" class="node-bkg node-no-border" id="node-32"></path><line y2="37.8" x2="212" y1="37.8" x1="0" class="node-line-5"></line></g><g transform="translate(106, 5)" text-anchor="middle" dominant-baseline="middle" alignment-baseline="middle" dy="1em"><g><rect class="background"></rect><text y="-10.1"><tspan dy="1.1em" y="-0.1em" x="0" class="text-outer-tspan"><tspan font-weight="normal" class="text-inner-tspan" font-style="normal">单色、对比色、三原色应用</tspan></tspan></text></g></g></g><g transform="translate(1097.013530815967, 255.61672082888296)" class="mindmap-node section-5"><g><path d="M0 32.8 v-27.799999999999997 q0,-5 5,-5 h154 q5,0 5,5 v32.8 H0 Z" class="node-bkg node-no-border" id="node-33"></path><line y2="37.8" x2="164" y1="37.8" x1="0" class="node-line-5"></line></g><g transform="translate(82, 5)" text-anchor="middle" dominant-baseline="middle" alignment-baseline="middle" dy="1em"><g><rect class="background"></rect><text y="-10.1"><tspan dy="1.1em" y="-0.1em" x="0" class="text-outer-tspan"><tspan font-weight="normal" class="text-inner-tspan" font-style="normal">波普艺术与色彩冲击</tspan></tspan></text></g></g></g><g transform="translate(697.5717353108806, 406.0168825812742)" class="mindmap-node section-6"><g><path d="M0 32.8 v-27.799999999999997 q0,-5 5,-5 h106 q5,0 5,5 v32.8 H0 Z" class="node-bkg node-no-border" id="node-34"></path><line y2="37.8" x2="116" y1="37.8" x1="0" class="node-line-6"></line></g><g transform="translate(58, 5)" text-anchor="middle" dominant-baseline="middle" alignment-baseline="middle" dy="1em"><g><rect class="background"></rect><text y="-10.1"><tspan dy="1.1em" y="-0.1em" x="0" class="text-outer-tspan"><tspan font-weight="normal" class="text-inner-tspan" font-style="normal">影视作品分析</tspan></tspan></text></g></g></g><g transform="translate(723.0614198738716, 527.4997404918939)" class="mindmap-node section-6"><g><path d="M0 32.8 v-27.799999999999997 q0,-5 5,-5 h170 q5,0 5,5 v32.8 H0 Z" class="node-bkg node-no-border" id="node-35"></path><line y2="37.8" x2="180" y1="37.8" x1="0" class="node-line-6"></line></g><g transform="translate(90, 5)" text-anchor="middle" dominant-baseline="middle" alignment-baseline="middle" dy="1em"><g><rect class="background"></rect><text y="-10.1"><tspan dy="1.1em" y="-0.1em" x="0" class="text-outer-tspan"><tspan font-weight="normal" class="text-inner-tspan" font-style="normal">《末代皇帝》色彩走向</tspan></tspan></text></g></g></g><g transform="translate(920.342329009689, 496.37873697909697)" class="mindmap-node section-6"><g><path d="M0 32.8 v-27.799999999999997 q0,-5 5,-5 h123 q5,0 5,5 v32.8 H0 Z" class="node-bkg node-no-border" id="node-36"></path><line y2="37.8" x2="133" y1="37.8" x1="0" class="node-line-6"></line></g><g transform="translate(66.5, 5)" text-anchor="middle" dominant-baseline="middle" alignment-baseline="middle" dy="1em"><g><rect class="background"></rect><text y="-10.1"><tspan dy="1.1em" y="-0.1em" x="0" class="text-outer-tspan"><tspan font-weight="normal" class="text-inner-tspan" font-style="normal">情绪与色彩过渡</tspan></tspan></text></g></g></g><g transform="translate(586.908195670702, 486.22682919161946)" class="mindmap-node section-6"><g><path d="M0 32.8 v-27.799999999999997 q0,-5 5,-5 h155 q5,0 5,5 v32.8 H0 Z" class="node-bkg node-no-border" id="node-37"></path><line y2="37.8" x2="165" y1="37.8" x1="0" class="node-line-6"></line></g><g transform="translate(82.5, 5)" text-anchor="middle" dominant-baseline="middle" alignment-baseline="middle" dy="1em"><g><rect class="background"></rect><text y="-10.1"><tspan dy="1.1em" y="-0.1em" x="0" class="text-outer-tspan"><tspan font-weight="normal" class="text-inner-tspan" font-style="normal">场景色彩区分与理解</tspan></tspan></text></g></g></g><g transform="translate(440.7441228714757, 444.28333330219255)" class="mindmap-node section-6"><g><path d="M0 32.8 v-27.799999999999997 q0,-5 5,-5 h186 q5,0 5,5 v32.8 H0 Z" class="node-bkg node-no-border" id="node-38"></path><line y2="37.8" x2="196" y1="37.8" x1="0" class="node-line-6"></line></g><g transform="translate(98, 5)" text-anchor="middle" dominant-baseline="middle" alignment-baseline="middle" dy="1em"><g><rect class="background"></rect><text y="-10.1"><tspan dy="1.1em" y="-0.1em" x="0" class="text-outer-tspan"><tspan font-weight="normal" class="text-inner-tspan" font-style="normal">角色表演与画面方式结合</tspan></tspan></text></g></g></g><g transform="translate(483.5201095256301, 162.11613789139142)" class="mindmap-node section-7"><g><path d="M0 32.8 v-27.799999999999997 q0,-5 5,-5 h106 q5,0 5,5 v32.8 H0 Z" class="node-bkg node-no-border" id="node-39"></path><line y2="37.8" x2="116" y1="37.8" x1="0" class="node-line-7"></line></g><g transform="translate(58, 5)" text-anchor="middle" dominant-baseline="middle" alignment-baseline="middle" dy="1em"><g><rect class="background"></rect><text y="-10.1"><tspan dy="1.1em" y="-0.1em" x="0" class="text-outer-tspan"><tspan font-weight="normal" class="text-inner-tspan" font-style="normal">游戏设计应用</tspan></tspan></text></g></g></g><g transform="translate(190.86892434448225, 99.0635977798255)" class="mindmap-node section-7"><g><path d="M0 32.8 v-27.799999999999997 q0,-5 5,-5 h154 q5,0 5,5 v32.8 H0 Z" class="node-bkg node-no-border" id="node-40"></path><line y2="37.8" x2="164" y1="37.8" x1="0" class="node-line-7"></line></g><g transform="translate(82, 5)" text-anchor="middle" dominant-baseline="middle" alignment-baseline="middle" dy="1em"><g><rect class="background"></rect><text y="-10.1"><tspan dy="1.1em" y="-0.1em" x="0" class="text-outer-tspan"><tspan font-weight="normal" class="text-inner-tspan" font-style="normal">色彩脚本与故事表达</tspan></tspan></text></g></g></g><g transform="translate(303.5220697462229, 141.11380236034393)" class="mindmap-node section-7"><g><path d="M0 32.8 v-27.799999999999997 q0,-5 5,-5 h154 q5,0 5,5 v32.8 H0 Z" class="node-bkg node-no-border" id="node-41"></path><line y2="37.8" x2="164" y1="37.8" x1="0" class="node-line-7"></line></g><g transform="translate(82, 5)" text-anchor="middle" dominant-baseline="middle" alignment-baseline="middle" dy="1em"><g><rect class="background"></rect><text y="-10.1"><tspan dy="1.1em" y="-0.1em" x="0" class="text-outer-tspan"><tspan font-weight="normal" class="text-inner-tspan" font-style="normal">游戏节奏与色彩需求</tspan></tspan></text></g></g></g><g transform="translate(302.0783298750432, 36.71452979051708)" class="mindmap-node section-7"><g><path d="M0 50.39999847412109 v-45.39999847412109 q0,-5 5,-5 h196 q5,0 5,5 v50.39999847412109 H0 Z" class="node-bkg node-no-border" id="node-42"></path><line y2="55.39999847412109" x2="206" y1="55.39999847412109" x1="0" class="node-line-7"></line></g><g transform="translate(103, 5)" text-anchor="middle" dominant-baseline="middle" alignment-baseline="middle" dy="1em"><g><rect class="background"></rect><text y="-10.1"><tspan dy="1.1em" y="-0.1em" x="0" class="text-outer-tspan"><tspan font-weight="normal" class="text-inner-tspan" font-style="normal">例子：MMORPG副本色彩</tspan></tspan><tspan dy="1.1em" y="1em" x="0" class="text-outer-tspan"><tspan font-weight="normal" class="text-inner-tspan" font-style="normal">变化</tspan></tspan></text></g></g></g><g transform="translate(662.486674489849, 176.9296220586375)" class="mindmap-node section-7"><g><path d="M0 32.8 v-27.799999999999997 q0,-5 5,-5 h154 q5,0 5,5 v32.8 H0 Z" class="node-bkg node-no-border" id="node-43"></path><line y2="37.8" x2="164" y1="37.8" x1="0" class="node-line-7"></line></g><g transform="translate(82, 5)" text-anchor="middle" dominant-baseline="middle" alignment-baseline="middle" dy="1em"><g><rect class="background"></rect><text y="-10.1"><tspan dy="1.1em" y="-0.1em" x="0" class="text-outer-tspan"><tspan font-weight="normal" class="text-inner-tspan" font-style="normal">环境色彩与玩家情绪</tspan></tspan></text></g></g></g><g transform="translate(500.4712603759625, 95.11592370538904)" class="mindmap-node section-7"><g><path d="M0 32.8 v-27.799999999999997 q0,-5 5,-5 h170 q5,0 5,5 v32.8 H0 Z" class="node-bkg node-no-border" id="node-44"></path><line y2="37.8" x2="180" y1="37.8" x1="0" class="node-line-7"></line></g><g transform="translate(90, 5)" text-anchor="middle" dominant-baseline="middle" alignment-baseline="middle" dy="1em"><g><rect class="background"></rect><text y="-10.1"><tspan dy="1.1em" y="-0.1em" x="0" class="text-outer-tspan"><tspan font-weight="normal" class="text-inner-tspan" font-style="normal">视觉呈现与游戏好玩性</tspan></tspan></text></g></g></g><g transform="translate(283.22957079474634, 261.42701965486856)" class="mindmap-node section-8"><g><path d="M0 32.8 v-27.799999999999997 q0,-5 5,-5 h154 q5,0 5,5 v32.8 H0 Z" class="node-bkg node-no-border" id="node-45"></path><line y2="37.8" x2="164" y1="37.8" x1="0" class="node-line-8"></line></g><g transform="translate(82, 5)" text-anchor="middle" dominant-baseline="middle" alignment-baseline="middle" dy="1em"><g><rect class="background"></rect><text y="-10.1"><tspan dy="1.1em" y="-0.1em" x="0" class="text-outer-tspan"><tspan font-weight="normal" class="text-inner-tspan" font-style="normal">色彩脚本与导演沟通</tspan></tspan></text></g></g></g><g transform="translate(182.6416470066356, 339.98160933138115)" class="mindmap-node section-8"><g><path d="M0 32.8 v-27.799999999999997 q0,-5 5,-5 h139 q5,0 5,5 v32.8 H0 Z" class="node-bkg node-no-border" id="node-46"></path><line y2="37.8" x2="149" y1="37.8" x1="0" class="node-line-8"></line></g><g transform="translate(74.5, 5)" text-anchor="middle" dominant-baseline="middle" alignment-baseline="middle" dy="1em"><g><rect class="background"></rect><text y="-10.1"><tspan dy="1.1em" y="-0.1em" x="0" class="text-outer-tspan"><tspan font-weight="normal" class="text-inner-tspan" font-style="normal">快速对齐剧本理解</tspan></tspan></text></g></g></g><g transform="translate(100.90544379070275, 276.0001640774515)" class="mindmap-node section-8"><g><path d="M0 32.8 v-27.799999999999997 q0,-5 5,-5 h154 q5,0 5,5 v32.8 H0 Z" class="node-bkg node-no-border" id="node-47"></path><line y2="37.8" x2="164" y1="37.8" x1="0" class="node-line-8"></line></g><g transform="translate(82, 5)" text-anchor="middle" dominant-baseline="middle" alignment-baseline="middle" dy="1em"><g><rect class="background"></rect><text y="-10.1"><tspan dy="1.1em" y="-0.1em" x="0" class="text-outer-tspan"><tspan font-weight="normal" class="text-inner-tspan" font-style="normal">非专业人员理解工具</tspan></tspan></text></g></g></g><g transform="translate(172.93794004300025, 185.61863590600558)" class="mindmap-node section-8"><g><path d="M0 32.8 v-27.799999999999997 q0,-5 5,-5 h138 q5,0 5,5 v32.8 H0 Z" class="node-bkg node-no-border" id="node-48"></path><line y2="37.8" x2="148" y1="37.8" x1="0" class="node-line-8"></line></g><g transform="translate(74, 5)" text-anchor="middle" dominant-baseline="middle" alignment-baseline="middle" dy="1em"><g><rect class="background"></rect><text y="-10.1"><tspan dy="1.1em" y="-0.1em" x="0" class="text-outer-tspan"><tspan font-weight="normal" class="text-inner-tspan" font-style="normal">游戏剧情色彩表达</tspan></tspan></text></g></g></g><g transform="translate(15, 319.9187349611627)" class="mindmap-node section-8"><g><path d="M0 32.8 v-27.799999999999997 q0,-5 5,-5 h138 q5,0 5,5 v32.8 H0 Z" class="node-bkg node-no-border" id="node-49"></path><line y2="37.8" x2="148" y1="37.8" x1="0" class="node-line-8"></line></g><g transform="translate(74, 5)" text-anchor="middle" dominant-baseline="middle" alignment-baseline="middle" dy="1em"><g><rect class="background"></rect><text y="-10.1"><tspan dy="1.1em" y="-0.1em" x="0" class="text-outer-tspan"><tspan font-weight="normal" class="text-inner-tspan" font-style="normal">时间环境色彩变化</tspan></tspan></text></g></g></g><g transform="translate(29.789253537508444, 228.2984782766232)" class="mindmap-node section-8"><g><path d="M0 32.8 v-27.799999999999997 q0,-5 5,-5 h138 q5,0 5,5 v32.8 H0 Z" class="node-bkg node-no-border" id="node-50"></path><line y2="37.8" x2="148" y1="37.8" x1="0" class="node-line-8"></line></g><g transform="translate(74, 5)" text-anchor="middle" dominant-baseline="middle" alignment-baseline="middle" dy="1em"><g><rect class="background"></rect><text y="-10.1"><tspan dy="1.1em" y="-0.1em" x="0" class="text-outer-tspan"><tspan font-weight="normal" class="text-inner-tspan" font-style="normal">完整游戏体验设计</tspan></tspan></text></g></g></g></g></svg>